{"title":"Battleground.2012.720p.BRRip.XviD.(Murlok)","uid":6957724,"size":3424146031,"categoryP":"video","categoryS":"hd___movies","magnet":"?xt=urn:btih:63c4166c282ca702b5f257b26eb178c7668cd288&amp;dn=Battleground.2012.720p.BRRip.XviD.%28Murlok%29&amp;tr=udp%3A%2F%2Ftracker.openbittorrent.com%3A80&amp;tr=udp%3A%2F%2Fopen.demonii.com%3A1337&amp;tr=udp%3A%2F%2Ftracker.coppersurfer.tk%3A6969&amp;tr=udp%3A%2F%2Fexodus.desync.com%3A6969","seeders":0,"leechers":1,"uploader":"Murlok","files":-1,"time":1326646346,"description":"attleground.2012.720p.BRRip.XviD.AC3-PRESTiGE\n\nGeneral Information:\n\nComplete name: Battleground.2012.720p.BRRip.XviD.AC3-PRESTiGE\nFormat : AVI\nFormat/Info: Audio Video Interleave\nFormat profile : OpenDML\nFile size: 3.14 GiB\nDuration : 1h 29mn\nOverall bit rate : 5 052 Kbps\nSubs : N/A\nSource : 720p-HD4U Many THANKS\nEncoder : akosipalos\n\niMDB: http://www.imdb.com/title/tt1754506/\n\nVideo\n\nID : 0\nFormat : MPEG-4 Visual\nFormat profile : Advanced Simple@L5\nFormat settings, BVOP: 2\nFormat settings, QPel: No\nFormat settings, GMC : No warppoints\nFormat settings, Matrix: Default (H.263)\nCodec ID : XVID\nCodec ID/Hint: XviD\nDuration : 1h 29mn\nBit rate : 4 408 Kbps\nWidth: 1 280 pixels\nHeight : 512 pixels\nDisplay aspect ratio : 2.500\nFrame rate : 23.976 fps\nColor space: YUV\nChroma subsampling : 4:2:0\nBit depth: 8 bits\nScan type: Progressive\nCompression mode : Lossy\nBits/(Pixel*Frame) : 0.281\nStream size: 2.74 GiB (87%)\nWriting library: XviD 1.2.1 (UTC 2008-12-04)\n\nAudio\n\nID : 1\nFormat : AC-3\nFormat/Info: Audio Coding 3\nMode extension : CM (complete main)\nCodec ID : 2000\nDuration : 1h 29mn\nBit rate mode: Constant\nBit rate : 640 Kbps\nChannel(s) : 2 channels\nChannel positions: Front: L R\nSampling rate: 48.0 KHz\nBit depth: 16 bits\nCompression mode : Lossy\nStream size: 408 MiB (13%)\nAlignment: Split accross interleaves\nInterleave, duration : 500 ms (11.99 video frames)\nInterleave, preload duration : 500 ms\n\n\nPlot:\n\nSkeleton Lakes plot synopsis: Six ruthless bank robbers encounter someone far worse. Six bank robbers..\n\nTake Care Of Our Children\n\nEnjoy","torrent":{"xt":"urn:btih:63c4166c282ca702b5f257b26eb178c7668cd288","amp;dn":"Battleground.2012.720p.BRRip.XviD.%28Murlok%29","amp;tr":["udp%3A%2F%2Ftracker.openbittorrent.com%3A80","udp%3A%2F%2Fopen.demonii.com%3A1337","udp%3A%2F%2Ftracker.coppersurfer.tk%3A6969","udp%3A%2F%2Fexodus.desync.com%3A6969"],"infoHash":"63c4166c282ca702b5f257b26eb178c7668cd288","infoHashBuffer":{"type":"Buffer","data":[99,196,22,108,40,44,167,2,181,242,87,178,110,177,120,199,102,140,210,136]},"announce":[],"urlList":[]}}